# xmcd
#
# Track frame offsets:
#	150
#	104257
#	122193
#	152152
#	231285
#	311186
#
# Disc length: 4282 seconds
#
# Revision: 1
# Processed by: cddbd v1.5.2PL0 Copyright (c) Steve Scherf et al.
# Submitted via: audiograbber 1.83.01
#
DISCID=4d10b806
DTITLE=Grateful Dead - 69-08-03 Family Dog at the Great Highway, San Francisco 
DTITLE=CA
DYEAR=1900
DGENRE=
TTITLE0=Dark Star
TTITLE1=Alligator
TTITLE2=Drums
TTITLE3=The Other One
TTITLE4=Caution
TTITLE5=We Bid You Goodnight
EXTD=
EXTT0=
EXTT1=
EXTT2=
EXTT3=
EXTT4=
EXTT5=
PLAYORDER=
